{
	"asset":{
		"generator":"Khronos glTF Blender I/O v4.2.57",
		"version":"2.0"
	},
	"scene":0,
	"scenes":[
		{
			"name":"Scene",
			"nodes":[
				0,
				1,
				2,
				7,
				8,
				9
			]
		}
	],
	"nodes":[
		{
			"mesh":0,
			"name":"arm_L",
			"scale":[
				0.2165030688047409,
				0.2165030688047409,
				0.2165030688047409
			]
		},
		{
			"mesh":1,
			"name":"arm_R",
			"scale":[
				0.2165030688047409,
				0.2165030688047409,
				0.2165030688047409
			]
		},
		{
			"mesh":2,
			"name":"body",
			"scale":[
				1,
				0.8500001430511475,
				1
			]
		},
		{
			"mesh":3,
			"name":"antenna_L",
			"scale":[
				0.026972342282533646,
				0.026972338557243347,
				0.026972342282533646
			]
		},
		{
			"mesh":4,
			"name":"antenna_R",
			"scale":[
				0.026972342282533646,
				0.026972340419888496,
				0.026972342282533646
			]
		},
		{
			"mesh":5,
			"name":"eye_L",
			"scale":[
				0.16943934559822083,
				0.16943933069705963,
				0.16943933069705963
			]
		},
		{
			"mesh":6,
			"name":"eye_R",
			"scale":[
				0.16943933069705963,
				0.16943931579589844,
				0.16943934559822083
			]
		},
		{
			"children":[
				3,
				4,
				5,
				6
			],
			"mesh":7,
			"name":"head"
		},
		{
			"mesh":8,
			"name":"leg_L",
			"scale":[
				0.23506413400173187,
				0.23506413400173187,
				0.23506413400173187
			]
		},
		{
			"mesh":9,
			"name":"leg_R",
			"scale":[
				0.23506413400173187,
				0.23506413400173187,
				0.23506413400173187
			]
		}
	],
	"materials":[
		{
			"doubleSided":true,
			"name":"android",
			"pbrMetallicRoughness":{
				"baseColorFactor":[
					0.3712378442287445,
					0.5647118091583252,
					0.04091520607471466,
					1
				],
				"metallicFactor":0,
				"roughnessFactor":0.5
			}
		},
		{
			"doubleSided":true,
			"name":"eye",
			"pbrMetallicRoughness":{
				"baseColorFactor":[
					0,
					0,
					0,
					1
				],
				"metallicFactor":0,
				"roughnessFactor":0.5
			}
		}
	],
	"meshes":[
		{
			"name":"Sphere.006",
			"primitives":[
				{
					"attributes":{
						"POSITION":0,
						"NORMAL":1
					},
					"indices":2,
					"material":0
				}
			]
		},
		{
			"name":"Sphere.005",
			"primitives":[
				{
					"attributes":{
						"POSITION":3,
						"NORMAL":4
					},
					"indices":2,
					"material":0
				}
			]
		},
		{
			"name":"Cylinder",
			"primitives":[
				{
					"attributes":{
						"POSITION":5,
						"NORMAL":6
					},
					"indices":7,
					"material":0
				}
			]
		},
		{
			"name":"Sphere.004",
			"primitives":[
				{
					"attributes":{
						"POSITION":8,
						"NORMAL":9
					},
					"indices":10,
					"material":0
				}
			]
		},
		{
			"name":"Sphere.003",
			"primitives":[
				{
					"attributes":{
						"POSITION":11,
						"NORMAL":12
					},
					"indices":10,
					"material":0
				}
			]
		},
		{
			"name":"Sphere.007",
			"primitives":[
				{
					"attributes":{
						"POSITION":13,
						"NORMAL":14
					},
					"indices":15,
					"material":1
				}
			]
		},
		{
			"name":"Sphere.008",
			"primitives":[
				{
					"attributes":{
						"POSITION":16,
						"NORMAL":17
					},
					"indices":15,
					"material":1
				}
			]
		},
		{
			"name":"Sphere",
			"primitives":[
				{
					"attributes":{
						"POSITION":18,
						"NORMAL":19
					},
					"indices":20,
					"material":0
				}
			]
		},
		{
			"name":"Sphere.001",
			"primitives":[
				{
					"attributes":{
						"POSITION":21,
						"NORMAL":22
					},
					"indices":10,
					"material":0
				}
			]
		},
		{
			"name":"Sphere.002",
			"primitives":[
				{
					"attributes":{
						"POSITION":23,
						"NORMAL":24
					},
					"indices":10,
					"material":0
				}
			]
		}
	],
	"accessors":[
		{
			"bufferView":0,
			"componentType":5126,
			"count":514,
			"max":[
				7.008905410766602,
				4.111947059631348,
				0.9957345128059387
			],
			"min":[
				5.01743745803833,
				-2.2587647438049316,
				-0.9957332611083984
			],
			"type":"VEC3"
		},
		{
			"bufferView":1,
			"componentType":5126,
			"count":514,
			"type":"VEC3"
		},
		{
			"bufferView":2,
			"componentType":5123,
			"count":3072,
			"type":"SCALAR"
		},
		{
			"bufferView":3,
			"componentType":5126,
			"count":514,
			"max":[
				-5.017452716827393,
				4.111947059631348,
				0.9957345128059387
			],
			"min":[
				-7.008920669555664,
				-2.2587647438049316,
				-0.9957332611083984
			],
			"type":"VEC3"
		},
		{
			"bufferView":4,
			"componentType":5126,
			"count":514,
			"type":"VEC3"
		},
		{
			"bufferView":5,
			"componentType":5126,
			"count":258,
			"max":[
				1,
				0.9882352948188782,
				1
			],
			"min":[
				-1,
				-1.0117647647857666,
				-1
			],
			"type":"VEC3"
		},
		{
			"bufferView":6,
			"componentType":5126,
			"count":258,
			"type":"VEC3"
		},
		{
			"bufferView":7,
			"componentType":5123,
			"count":1536,
			"type":"SCALAR"
		},
		{
			"bufferView":8,
			"componentType":5126,
			"count":289,
			"max":[
				23.798065185546875,
				76.25891876220703,
				1.0000104904174805
			],
			"min":[
				14.579166412353516,
				61.65449142456055,
				-0.9999932050704956
			],
			"type":"VEC3"
		},
		{
			"bufferView":9,
			"componentType":5126,
			"count":289,
			"type":"VEC3"
		},
		{
			"bufferView":10,
			"componentType":5123,
			"count":1632,
			"type":"SCALAR"
		},
		{
			"bufferView":11,
			"componentType":5126,
			"count":289,
			"max":[
				-14.579109191894531,
				76.2589111328125,
				1.0000104904174805
			],
			"min":[
				-23.798011779785156,
				61.65449523925781,
				-0.9999921321868896
			],
			"type":"VEC3"
		},
		{
			"bufferView":12,
			"componentType":5126,
			"count":289,
			"type":"VEC3"
		},
		{
			"bufferView":13,
			"componentType":5126,
			"count":97,
			"max":[
				3.1838245391845703,
				8.592755317687988,
				4.7386555671691895
			],
			"min":[
				2.254213333129883,
				7.652623176574707,
				4.0573344230651855
			],
			"type":"VEC3"
		},
		{
			"bufferView":14,
			"componentType":5126,
			"count":97,
			"type":"VEC3"
		},
		{
			"bufferView":15,
			"componentType":5123,
			"count":480,
			"type":"SCALAR"
		},
		{
			"bufferView":16,
			"componentType":5126,
			"count":97,
			"max":[
				-2.253114938735962,
				8.584765434265137,
				4.743398189544678
			],
			"min":[
				-3.1797571182250977,
				7.657519817352295,
				4.043641090393066
			],
			"type":"VEC3"
		},
		{
			"bufferView":17,
			"componentType":5126,
			"count":97,
			"type":"VEC3"
		},
		{
			"bufferView":18,
			"componentType":5126,
			"count":353,
			"max":[
				1.000000238418579,
				1.9227641820907593,
				1.0000003576278687
			],
			"min":[
				-0.9999998211860657,
				0.922764241695404,
				-0.9999991655349731
			],
			"type":"VEC3"
		},
		{
			"bufferView":19,
			"componentType":5126,
			"count":353,
			"type":"VEC3"
		},
		{
			"bufferView":20,
			"componentType":5123,
			"count":2016,
			"type":"SCALAR"
		},
		{
			"bufferView":21,
			"componentType":5126,
			"count":289,
			"max":[
				2.609874725341797,
				-2.184422731399536,
				0.9999995231628418
			],
			"min":[
				0.6098747849464417,
				-6.621476173400879,
				-0.9999999403953552
			],
			"type":"VEC3"
		},
		{
			"bufferView":22,
			"componentType":5126,
			"count":289,
			"type":"VEC3"
		},
		{
			"bufferView":23,
			"componentType":5126,
			"count":289,
			"max":[
				-0.6098581552505493,
				-2.184422731399536,
				0.9999995231628418
			],
			"min":[
				-2.609858274459839,
				-6.621476173400879,
				-0.9999999403953552
			],
			"type":"VEC3"
		},
		{
			"bufferView":24,
			"componentType":5126,
			"count":289,
			"type":"VEC3"
		}
	],
	"bufferViews":[
		{
			"buffer":0,
			"byteLength":6168,
			"byteOffset":0,
			"target":34962
		},
		{
			"buffer":0,
			"byteLength":6168,
			"byteOffset":6168,
			"target":34962
		},
		{
			"buffer":0,
			"byteLength":6144,
			"byteOffset":12336,
			"target":34963
		},
		{
			"buffer":0,
			"byteLength":6168,
			"byteOffset":18480,
			"target":34962
		},
		{
			"buffer":0,
			"byteLength":6168,
			"byteOffset":24648,
			"target":34962
		},
		{
			"buffer":0,
			"byteLength":3096,
			"byteOffset":30816,
			"target":34962
		},
		{
			"buffer":0,
			"byteLength":3096,
			"byteOffset":33912,
			"target":34962
		},
		{
			"buffer":0,
			"byteLength":3072,
			"byteOffset":37008,
			"target":34963
		},
		{
			"buffer":0,
			"byteLength":3468,
			"byteOffset":40080,
			"target":34962
		},
		{
			"buffer":0,
			"byteLength":3468,
			"byteOffset":43548,
			"target":34962
		},
		{
			"buffer":0,
			"byteLength":3264,
			"byteOffset":47016,
			"target":34963
		},
		{
			"buffer":0,
			"byteLength":3468,
			"byteOffset":50280,
			"target":34962
		},
		{
			"buffer":0,
			"byteLength":3468,
			"byteOffset":53748,
			"target":34962
		},
		{
			"buffer":0,
			"byteLength":1164,
			"byteOffset":57216,
			"target":34962
		},
		{
			"buffer":0,
			"byteLength":1164,
			"byteOffset":58380,
			"target":34962
		},
		{
			"buffer":0,
			"byteLength":960,
			"byteOffset":59544,
			"target":34963
		},
		{
			"buffer":0,
			"byteLength":1164,
			"byteOffset":60504,
			"target":34962
		},
		{
			"buffer":0,
			"byteLength":1164,
			"byteOffset":61668,
			"target":34962
		},
		{
			"buffer":0,
			"byteLength":4236,
			"byteOffset":62832,
			"target":34962
		},
		{
			"buffer":0,
			"byteLength":4236,
			"byteOffset":67068,
			"target":34962
		},
		{
			"buffer":0,
			"byteLength":4032,
			"byteOffset":71304,
			"target":34963
		},
		{
			"buffer":0,
			"byteLength":3468,
			"byteOffset":75336,
			"target":34962
		},
		{
			"buffer":0,
			"byteLength":3468,
			"byteOffset":78804,
			"target":34962
		},
		{
			"buffer":0,
			"byteLength":3468,
			"byteOffset":82272,
			"target":34962
		},
		{
			"buffer":0,
			"byteLength":3468,
			"byteOffset":85740,
			"target":34962
		}
	],
	"buffers":[
		{
			"byteLength":89208,
			"uri":"android.bin"
		}
	]
}
